<svg xmlns="http://www.w3.org/2000/svg" version="1.1" xmlns:xlink="http://www.w3.org/1999/xlink" xmlns:svgjs="http://svgjs.dev/svgjs" width="2000" height="2398" viewBox="0 0 2000 2398"><g transform="matrix(1,0,0,1,-1.6250270260967454,0.9726429936331442)"><svg viewBox="0 0 206 247" data-background-color="#ffffff" preserveAspectRatio="xMidYMid meet" height="2398" width="2000" xmlns="http://www.w3.org/2000/svg" xmlns:xlink="http://www.w3.org/1999/xlink"><g id="tight-bounds" transform="matrix(1,0,0,1,0.16751021010782097,-0.099973655792013)"><svg viewBox="0 0 205.66502591413408 247.2" height="247.2" width="205.66502591413408"><g><svg viewBox="0 0 205.6650259141341 247.20000000000002" height="247.2" width="205.66502591413408"><g><svg viewBox="0 0 205.6650259141341 247.20000000000002" height="247.20000000000002" width="205.6650259141341"><g id="textblocktransform"><svg viewBox="0 0 205.6650259141341 247.20000000000002" height="247.20000000000002" width="205.6650259141341" id="textblock"><g><svg viewBox="0 0 205.6650259141341 247.20000000000002" height="247.20000000000002" width="205.6650259141341"><path d="M205.184 53.02C204.217 27.36 201.461 20.227 201.461 20.227 193.001-6.202 182.443-0.506 172.958 3.292 156.211 3.446 139.533 9.091 122.825 12.119 87.757 12.581 52.388 4.986 17.494 23.717 14.216 29.464-3.401 24.846 0.583 56.304 1.627 69.39 5.437 83.913 5.321 95.922 5.843 98.026 6.568 93.202 6.877 96.23 7.96 104.39 9.73 100.541 11.18 105.365 9.159 118.246 10.61 128.971 11.992 140.21 9.556 143.135 6.433 141.749 5.031 151.449 4.886 158.479 4.102 157.145 3.242 156.837 2.613 156.632 1.347 157.402 1.56 159.608 2.285 167.152-0.829 171.514 1.124 178.904-0.219 186.91 2.053 193.838 1.743 202.511 1.705 204.255 1.917 205.744 2.256 206.154 3.754 208.361 1.569 212.672 1.801 217.342 17.175 249.262 33.853 227.195 49.604 241.872 53.693 231.608 50.619 245.516 52.253 243.36 53.529 240.846 54.457 251.263 55.898 245.362 56.12 243.668 55.782 239.665 56.575 240.435 56.991 240.846 57.358 240.743 57.416 238.382 57.503 234.841 56.739 237.048 56.536 235.201 58.731 225.861 58.189 248.081 60.249 247.158 60.152 244.438 59.553 240.538 60.781 241.051 61.999 237.151 62.038 233.918 63.121 242.693 63.159 244.592 63.353 245.926 63.662 246.85 67.046 237.305 70.411 250.237 73.959 245.926 76.135 241.205 78.223 248.492 80.428 246.696 81.201 245.259 81.984 242.693 82.729 247.004 91.846 247.928 101.563 244.079 110.207 247.158 133.306 241.41 157.99 249.518 182.346 241.923 188.089 238.998 194.055 234.841 199.653 231.506 199.653 231.506 204.188 222.371 204.188 181.316S205.155 145.393 205.3 112.703C205.445 80.013 206.121 78.679 205.155 53.02Z" opacity="1" fill="#000000" data-fill-palette-color="tertiary"></path><g transform="matrix(1,0,0,1,55.76832,26.230666666666668)"><svg width="94.1283859141341" viewBox="3 -34.55 16.7 34.55" height="194.7386666666667" data-palette-color="#eae5e1"><path d="M9.35 0L3 0 3-34.55 19.7-34.55 19-29.8 9.35-29.8 9.35-19.25 17.75-19.25 17.75-14.5 9.35-14.5 9.35 0Z" opacity="1" transform="matrix(1,0,0,1,0,0)" fill="#ffffff" class="wordmark-text-0" data-fill-palette-color="quaternary" id="text-0"></path></svg></g></svg></g></svg></g></svg></g><g></g></svg></g><defs></defs></svg><rect width="205.66502591413408" height="247.2" fill="none" stroke="none" visibility="hidden"></rect></g></svg></g></svg>